<?xml version="1.0" standalone="no"?>
<!DOCTYPE svg PUBLIC "-//W3C//DTD SVG 20010904//EN"
 "http://www.w3.org/TR/2001/REC-SVG-20010904/DTD/svg10.dtd">
<svg version="1.0" xmlns="http://www.w3.org/2000/svg"
 width="512.000000pt" height="512.000000pt" viewBox="0 0 512.000000 512.000000"
 preserveAspectRatio="xMidYMid meet">
<metadata>
Created by potrace 1.14, written by Peter Selinger 2001-2017
</metadata>
<g transform="translate(0.000000,512.000000) scale(0.100000,-0.100000)"
fill="#000000" stroke="none">
<path d="M3802 5104 c-51 -22 -110 -88 -194 -215 -86 -129 -138 -231 -138
-269 0 -49 36 -85 133 -136 l59 -30 -46 -48 c-29 -32 -51 -46 -61 -43 -37 15
-68 -28 -99 -134 -33 -111 -106 -157 -280 -174 -34 -4 -71 -13 -83 -20 -38
-25 -43 -67 -40 -315 2 -267 -4 -355 -38 -526 -25 -125 -89 -293 -161 -421
-36 -65 -175 -212 -247 -261 -373 -255 -851 -287 -1090 -72 -148 133 -193 330
-135 590 5 25 12 56 14 70 8 42 50 186 113 390 62 199 71 240 49 240 -28 0
-41 -22 -94 -145 -69 -160 -113 -286 -158 -451 -55 -204 -70 -314 -70 -534 1
-338 61 -529 215 -679 155 -152 462 -198 709 -109 58 21 193 85 247 116 195
114 381 337 523 626 67 139 74 156 130 325 73 222 115 410 135 601 3 30 7 66
10 80 3 14 7 49 10 79 7 67 8 68 53 80 54 15 123 62 165 113 67 81 124 235
141 377 6 54 7 54 154 198 81 80 203 189 272 243 141 110 180 145 180 159 0
23 -22 19 -72 -12 -118 -76 -168 -97 -227 -97 -73 0 -147 27 -189 69 -30 30
-33 38 -28 70 10 64 66 119 128 125 24 2 56 -5 92 -22 49 -22 60 -23 81 -12
61 33 47 139 -24 174 -36 18 -100 18 -139 0z"/>
<path d="M2302 3788 c-5 -7 -35 -55 -67 -106 -65 -106 -67 -90 25 -162 25 -19
51 -42 58 -52 20 -27 47 -22 81 18 112 127 110 181 -12 271 -65 47 -70 49 -85
31z"/>
<path d="M3482 3432 c-11 -9 -43 -57 -72 -105 -44 -75 -50 -91 -39 -102 46
-43 150 -125 158 -125 24 0 116 111 126 153 14 56 -17 103 -110 167 -41 28
-44 29 -63 12z"/>
<path d="M3777 3417 c-39 -51 -107 -166 -107 -180 0 -6 21 -27 45 -46 25 -18
59 -46 77 -62 18 -16 38 -29 45 -29 17 0 92 89 116 137 18 36 19 45 7 72 -13
33 -87 103 -132 127 -26 13 -28 12 -51 -19z"/>
<path d="M4572 2964 c-24 -48 -103 -254 -148 -388 -61 -180 -66 -224 -69 -616
-2 -195 -6 -382 -10 -414 -18 -169 -57 -268 -125 -314 -31 -21 -43 -23 -99
-18 -35 4 -67 9 -71 11 -5 3 -37 6 -73 7 -56 2 -64 4 -57 17 13 26 32 132 35
195 5 118 -43 203 -121 212 -80 10 -126 -43 -223 -257 -72 -160 -87 -208 -85
-266 1 -24 2 -57 3 -73 0 -18 11 -41 25 -55 l25 -25 -47 -41 c-51 -45 -182
-111 -320 -160 -135 -48 -539 -144 -682 -163 -19 -3 -48 -7 -65 -9 -30 -5
-116 -18 -145 -22 -8 -1 -44 -5 -80 -9 -36 -4 -76 -9 -90 -11 -46 -7 -201 -20
-385 -32 -237 -15 -841 -8 -967 12 -13 2 -53 6 -90 10 -83 8 -92 9 -225 41
-118 27 -173 49 -245 95 -69 45 -95 85 -113 175 -36 184 -44 174 -102 -136
-21 -114 -24 -372 -5 -437 16 -53 86 -131 149 -165 45 -24 193 -70 273 -83
104 -18 232 -33 304 -35 323 -10 832 -3 1001 15 22 2 69 7 105 10 73 7 102 11
145 19 17 3 53 8 80 11 28 4 97 13 155 22 58 8 114 16 125 17 242 31 535 104
695 174 119 51 149 67 200 105 81 61 121 105 256 282 126 166 190 234 247 261
31 15 40 15 108 1 41 -9 112 -15 159 -14 75 2 90 5 133 32 182 114 381 516
411 830 18 178 23 277 32 655 10 398 11 549 3 561 -4 8 -14 -2 -27 -27z m-743
-1540 c63 -37 73 -110 21 -159 -52 -50 -200 -44 -220 10 -18 47 31 144 84 166
29 12 78 5 115 -17z"/>
<path d="M5087 2967 c-14 -19 -41 -78 -60 -133 -35 -101 -120 -423 -132 -504
-4 -25 -9 -52 -10 -60 -13 -69 -23 -251 -40 -700 -2 -63 -6 -131 -9 -150 -3
-19 -8 -62 -11 -95 -4 -33 -8 -73 -10 -90 -2 -16 -7 -56 -10 -87 -3 -31 -19
-112 -35 -180 -17 -68 -32 -133 -35 -146 -23 -99 129 162 190 328 64 172 115
397 130 570 3 41 8 95 10 120 2 25 7 135 10 245 3 110 8 263 10 340 4 146 13
295 20 355 8 66 16 220 12 220 -3 0 -16 -15 -30 -33z"/>
<path d="M3643 2232 c-11 -8 -91 -130 -116 -179 l-16 -30 42 -31 c23 -17 59
-46 81 -66 21 -20 44 -36 51 -36 19 0 92 88 116 139 21 44 21 46 3 79 -31 57
-137 139 -161 124z"/>
</g>
</svg>
