<?xml version="1.0" standalone="no"?>
<!DOCTYPE svg PUBLIC "-//W3C//DTD SVG 20010904//EN"
 "http://www.w3.org/TR/2001/REC-SVG-20010904/DTD/svg10.dtd">
<svg version="1.0" xmlns="http://www.w3.org/2000/svg"
 width="1100.000000pt" height="1100.000000pt" viewBox="0 0 1100.000000 1100.000000"
 preserveAspectRatio="xMidYMid meet">
<metadata>
Created by potrace 1.14, written by Peter Selinger 2001-2017
</metadata>
<g transform="translate(0.000000,1100.000000) scale(0.100000,-0.100000)"
fill="#000000" stroke="none">
<path d="M4338 10130 c-26 -10 -49 -16 -52 -13 -2 3 -11 1 -18 -3 -7 -5 -17
-9 -23 -11 -5 -1 -41 -14 -80 -28 -38 -14 -74 -28 -80 -29 -5 -2 -21 -7 -35
-13 -14 -5 -68 -25 -120 -42 -52 -18 -104 -37 -115 -42 -32 -14 -108 -39 -135
-45 -13 -3 -27 -10 -31 -15 -3 -6 -8 -10 -10 -9 -9 4 -66 -13 -86 -26 -12 -8
-30 -16 -40 -18 -22 -4 -49 -13 -88 -31 -16 -7 -50 -21 -75 -30 -25 -9 -60
-23 -77 -31 -18 -8 -48 -20 -65 -28 -33 -14 -67 -30 -220 -100 -43 -19 -78
-33 -78 -30 0 2 -18 -7 -40 -21 -22 -14 -45 -25 -51 -25 -6 0 -25 -6 -42 -14
-18 -8 -61 -26 -97 -39 -36 -14 -78 -31 -95 -38 -16 -7 -35 -13 -40 -14 -10
-2 -32 -12 -163 -71 -29 -13 -57 -24 -62 -24 -6 0 -10 -4 -10 -8 0 -5 -6 -9
-13 -9 -14 0 -303 -144 -359 -179 -21 -13 -42 -24 -48 -24 -5 0 -10 -4 -10
-10 0 -5 -6 -10 -12 -10 -7 0 -26 -11 -42 -25 -16 -14 -32 -25 -36 -25 -3 0
-30 -23 -58 -51 -55 -53 -82 -95 -86 -133 -1 -11 -8 -31 -15 -44 -7 -13 -14
-31 -16 -40 -2 -9 -10 -45 -19 -80 -9 -34 -14 -67 -11 -72 3 -5 0 -12 -5 -15
-6 -4 -10 -17 -9 -28 0 -12 0 -24 -1 -27 -15 -40 -20 -222 -21 -740 -1 -547 4
-850 13 -866 3 -5 6 -58 7 -119 1 -60 3 -155 5 -210 10 -261 17 -441 24 -565
4 -74 8 -170 7 -212 0 -43 3 -78 6 -78 3 0 6 -41 5 -91 -1 -50 1 -92 4 -94 3
-2 5 -40 4 -84 -1 -45 1 -81 5 -81 3 0 7 -35 8 -77 2 -107 9 -259 17 -378 4
-55 10 -136 12 -180 7 -92 11 -138 18 -180 3 -16 8 -97 10 -180 3 -82 9 -184
12 -225 4 -41 8 -102 10 -135 1 -33 4 -62 5 -65 4 -10 19 -203 21 -267 0 -24
4 -43 7 -43 4 0 6 -19 5 -41 -1 -23 3 -77 7 -121 5 -44 12 -110 15 -146 3 -37
7 -85 10 -107 3 -22 5 -51 5 -64 -1 -12 2 -28 6 -35 4 -6 8 -22 8 -36 2 -30
15 -132 22 -169 3 -14 6 -36 7 -48 1 -12 5 -25 9 -29 4 -4 7 -19 7 -33 0 -14
7 -60 16 -101 9 -41 18 -85 19 -98 5 -36 46 -112 60 -112 7 0 15 -4 17 -8 6
-16 100 -74 180 -111 110 -50 121 -55 136 -52 6 1 12 -2 12 -7 0 -5 6 -9 13
-9 6 0 44 -10 82 -22 39 -13 81 -25 95 -27 14 -2 56 -10 94 -18 38 -8 73 -13
77 -10 4 2 10 0 13 -5 4 -5 19 -10 34 -10 29 -1 74 -7 82 -11 7 -3 38 -7 82
-8 36 -2 36 -3 37 -44 1 -37 9 -287 12 -373 0 -16 3 -37 6 -45 3 -8 6 -33 8
-55 1 -22 8 -71 15 -110 7 -38 14 -79 15 -90 2 -11 4 -21 5 -22 2 -2 3 -6 4
-10 9 -37 22 -61 44 -80 30 -27 48 -29 60 -7 9 16 11 16 33 1 17 -12 26 -14
36 -5 7 6 13 7 13 3 0 -4 6 -2 14 4 10 8 16 9 21 1 12 -20 70 -11 95 15 13 14
20 25 16 25 -3 0 -1 12 7 28 7 15 11 41 9 57 -4 39 -4 46 0 362 l3 272 77 -3
c42 -2 80 -6 85 -9 4 -2 41 -4 81 -3 41 1 75 -1 77 -4 2 -3 32 -5 67 -4 34 1
67 -1 73 -4 5 -4 21 -7 35 -9 14 -1 48 -4 76 -6 28 -3 85 -8 125 -12 87 -9
126 -13 155 -14 19 -1 22 -7 22 -63 1 -35 2 -127 3 -206 1 -78 5 -144 8 -146
3 -2 5 -98 3 -213 -3 -238 -3 -253 -13 -253 -4 0 -5 -17 -4 -37 2 -20 1 -42
-3 -47 -9 -15 -9 -156 1 -156 4 0 7 -9 7 -20 0 -11 4 -20 9 -20 5 0 12 -8 16
-18 4 -15 60 -53 60 -41 0 1 11 -4 25 -11 35 -19 67 -23 220 -23 144 0 192 4
200 15 3 4 17 9 32 12 76 13 170 110 173 176 2 56 -45 132 -95 153 -14 6 -72
11 -130 11 l-105 1 2 145 c4 394 0 610 -12 679 l-6 34 78 -8 c43 -4 104 -8
135 -9 32 0 58 -4 58 -7 0 -3 39 -6 88 -7 181 -5 227 -7 237 -12 17 -10 333 0
468 14 26 3 67 14 92 25 25 11 45 17 45 14 0 -3 7 0 15 7 8 7 15 10 15 6 0 -4
17 2 38 13 20 10 40 20 44 20 11 3 70 28 136 58 31 14 63 27 71 29 8 1 17 7
20 13 4 6 17 12 30 14 12 2 27 10 32 18 6 10 9 11 10 2 2 -17 6 -32 9 -35 7
-7 6 -284 -1 -293 -4 -6 -10 -47 -13 -90 -3 -44 -7 -93 -10 -110 -3 -16 -8
-64 -12 -106 -6 -64 -4 -81 12 -109 22 -39 61 -80 74 -80 6 0 10 -5 10 -11 0
-5 4 -8 9 -4 5 3 12 1 15 -4 12 -19 143 -33 276 -28 154 4 167 6 192 27 40 32
98 90 99 97 0 4 3 17 5 28 10 42 6 66 -17 100 -35 51 -94 76 -194 83 l-85 5 4
117 c2 65 6 121 8 126 7 12 3 306 -4 324 -13 31 -16 150 -4 150 6 0 23 11 37
24 14 13 43 29 65 37 21 7 53 23 69 35 17 11 46 27 65 34 19 7 42 19 50 26 24
20 127 64 134 57 3 -4 6 -2 6 4 0 11 98 63 118 63 7 0 12 4 12 9 0 5 12 14 28
20 27 11 264 137 292 156 8 5 21 10 28 11 8 2 21 9 30 17 10 8 47 29 85 46 37
18 67 36 67 42 0 5 9 9 20 9 11 0 20 4 20 9 0 5 15 13 32 17 18 3 40 14 48 23
8 9 35 25 60 36 47 20 103 55 108 68 2 4 8 7 14 7 6 0 33 18 60 40 28 22 54
40 57 40 7 0 74 107 78 124 6 33 13 59 17 74 5 15 12 141 20 348 1 33 5 65 9
71 4 6 4 30 1 54 -6 50 -6 160 2 369 6 175 6 194 2 292 -2 43 -3 78 -1 78 8 0
132 -92 158 -117 8 -7 18 -13 24 -13 6 0 11 -4 11 -10 0 -5 7 -10 15 -10 8 0
15 -4 15 -9 0 -4 21 -24 46 -44 25 -19 82 -69 127 -110 45 -41 100 -90 122
-108 22 -19 42 -37 45 -40 13 -15 116 -79 127 -79 7 0 13 -5 13 -10 0 -6 4 -9
8 -8 10 4 86 -34 90 -45 2 -4 8 -5 13 -1 5 3 9 1 9 -4 0 -14 113 -9 118 6 2 7
7 10 11 7 5 -2 20 18 35 45 15 27 34 57 42 65 9 8 17 21 18 28 1 6 6 19 11 27
5 8 10 21 11 30 1 8 4 26 7 40 10 50 21 106 23 125 1 11 3 20 4 20 3 0 9 38
12 67 1 16 5 28 8 28 3 0 6 34 8 76 2 42 7 87 12 99 5 13 6 26 3 29 -4 3 -1 6
5 6 6 0 11 8 10 18 0 9 3 31 7 47 4 17 8 42 8 58 0 15 4 27 8 27 4 0 6 8 5 17
-2 9 1 37 6 62 5 25 11 57 13 71 3 14 7 39 10 55 3 17 7 41 9 55 3 14 5 25 6
25 4 0 9 69 15 198 4 119 3 143 -12 167 -9 16 -20 27 -24 24 -4 -2 -10 0 -14
6 -8 13 -55 13 -55 1 0 -6 -13 -6 -31 1 -24 8 -37 8 -51 -1 -14 -9 -23 -8 -44
5 -22 15 -28 15 -50 3 -30 -15 -51 -51 -55 -94 -2 -16 -9 -37 -15 -45 -15 -18
-19 -37 -34 -164 -12 -104 -20 -192 -25 -304 -2 -41 -7 -81 -11 -90 -4 -9 -8
-24 -9 -32 -1 -8 -5 -35 -10 -59 -4 -24 -9 -60 -11 -80 -3 -20 -6 -52 -9 -71
-3 -19 -7 -52 -9 -74 -6 -57 -17 -61 -63 -21 -23 19 -46 35 -52 35 -5 0 -14 6
-18 13 -4 7 -43 39 -85 71 -43 32 -91 71 -108 87 -16 16 -34 29 -39 29 -5 0
-11 3 -13 8 -1 4 -52 47 -113 96 -110 90 -136 112 -180 154 -13 12 -29 22 -35
22 -5 0 -10 5 -10 10 0 6 -4 10 -9 10 -6 0 -22 11 -37 25 l-27 25 -1 235 c-1
129 2 235 6 235 5 0 8 17 8 38 2 284 0 880 -5 992 -2 80 -6 193 -6 253 -1 59
-5 107 -8 107 -3 0 -6 44 -6 97 1 54 -3 159 -7 233 -4 74 -10 182 -12 240 -3
58 -6 105 -7 105 0 0 -3 19 -4 42 -2 23 -6 57 -10 75 -7 38 -9 71 -19 258 -5
74 -10 153 -12 175 -8 70 -14 119 -19 160 -3 22 -7 56 -9 75 -2 19 -4 35 -5
35 -1 0 -4 28 -5 62 -2 35 -7 102 -11 150 -4 49 -9 120 -10 159 -1 39 -4 75
-7 80 -5 10 -10 94 -10 157 0 20 -3 37 -7 37 -5 0 -7 12 -5 26 1 14 -4 65 -12
113 -8 47 -15 92 -16 99 -1 6 -5 12 -10 12 -4 0 -8 6 -8 14 0 21 -88 114 -123
131 -48 22 -117 45 -117 38 0 -3 -6 -1 -12 5 -7 5 -44 17 -83 26 -38 9 -82 21
-96 27 -14 6 -39 12 -55 14 -16 2 -60 11 -99 20 -96 22 -117 26 -137 26 -10 0
-20 5 -23 10 -4 5 -10 7 -14 5 -4 -3 -44 4 -89 14 -45 10 -82 16 -82 13 0 -3
-6 -1 -12 4 -7 5 -31 11 -52 12 -22 1 -44 5 -50 9 -6 3 -23 7 -39 8 -15 2 -50
7 -78 13 -28 6 -54 9 -59 6 -5 -3 -11 -1 -15 4 -3 5 -13 9 -23 9 -9 0 -33 3
-52 7 -19 4 -45 7 -57 6 -13 0 -23 4 -23 10 0 5 -3 8 -8 5 -4 -2 -30 0 -57 5
-28 5 -66 12 -85 15 -19 3 -48 7 -65 10 -65 10 -91 14 -105 16 -8 0 -48 7 -89
14 -41 7 -80 10 -87 7 -8 -3 -14 0 -14 6 0 6 -10 11 -22 11 -13 0 -36 2 -53 4
-16 3 -48 7 -70 10 -22 3 -49 7 -60 9 -11 3 -42 8 -70 11 -27 4 -66 9 -85 12
-19 3 -50 7 -67 7 -18 1 -33 4 -33 7 0 3 -15 6 -32 7 -36 1 -119 10 -158 18
-33 6 -138 18 -172 19 -16 1 -28 4 -28 7 0 4 -12 7 -27 7 -16 0 -46 3 -68 5
-22 3 -67 8 -100 11 -33 4 -92 11 -131 16 -39 5 -81 8 -93 5 -11 -2 -21 0 -21
4 0 5 -17 8 -37 7 -21 -2 -42 0 -48 3 -5 3 -25 6 -45 7 -19 1 -57 5 -85 7
-144 15 -181 15 -227 -3z"/>
</g>
</svg>
